#N canvas 232 133 787 455 10;
#X floatatom 60 69 5 1 300 0 - #0-in-edo #0-in-edo-s, f 5;
#X floatatom 60 93 5 1 300 1 - #0-out-edo #0-out-edo-s, f 5;
#X obj 361 11 notein, f 8;
#X obj 361 346 noteout, f 8;
#X text 101 68 input notes per octave;
#X floatatom 60 117 5 0 127 0 - #0-midi-note-ref #0-midi-note-ref-s
, f 5;
#X obj 245 172 bng 15 250 50 0 \$0-reset-monitoring empty empty 17
7 0 10 -262144 -1 -1;
#X floatatom 179 173 4 0 127 3 - #0-min -, f 4;
#X floatatom 212 173 4 0 127 3 - #0-max -, f 4;
#X text 262 172 Reset;
#X text 101 91 output notes per octave;
#X text 111 32 MIDI NOTE SCALER;
#N canvas 360 382 328 352 set.parameters 0;
#X obj 18 12 param.change;
#X obj 18 64 param.set 1;
#X obj 18 114 param.set 2;
#X obj 18 164 param.set 3;
#X obj 18 43 r \$0-in-edo-s;
#X obj 18 93 r \$0-out-edo-s;
#X obj 18 143 r \$0-midi-note-ref-s;
#X connect 4 0 1 0;
#X connect 5 0 2 0;
#X connect 6 0 3 0;
#X restore 21 332 pd set.parameters;
#N canvas 0 382 352 352 get.parameters 0;
#X obj 18 21 param.get 1;
#X msg 18 43 set \$1;
#X msg 18 123 set \$1;
#X msg 18 203 set \$1;
#X obj 18 101 param.get 2;
#X obj 18 181 param.get 3;
#X obj 18 65 s \$0-in-edo;
#X obj 18 145 s \$0-out-edo;
#X obj 18 225 s \$0-midi-note-ref;
#X connect 0 0 1 0;
#X connect 1 0 6 0;
#X connect 2 0 7 0;
#X connect 3 0 8 0;
#X connect 4 0 2 0;
#X connect 5 0 3 0;
#X restore 21 351 pd get.parameters;
#X obj 509 106 param.get 2;
#X obj 595 106 param.get 1;
#X text 526 90 output;
#X text 616 90 input;
#X obj 473 24 param.get 3;
#X text 483 8 ref midi;
#X obj 568 251 r \$0-reset-monitoring;
#X obj 434 345 min;
#X floatatom 434 374 5 0 0 0 - - -, f 5;
#X floatatom 651 374 5 0 0 0 - - -, f 5;
#X obj 651 345 max;
#X obj 651 399 s \$0-max;
#X obj 434 399 s \$0-min;
#X msg 568 273 127 0;
#X obj 568 295 unpack;
#X obj 504 251 loadbang;
#X text 199 156 MONITORING;
#X text 182 187 Min;
#X text 215 187 Max;
#X obj 434 76 - 0;
#X obj 434 228 + 0, f 6;
#X obj 434 205 * 1;
#X obj 509 169 / 1;
#X obj 324 346 pack;
#X obj 434 251 + 0.499;
#X obj 434 274 int;
#X obj 523 144 t b f;
#X text 100 115 center midi note number;
#X text 23 185 Sevish;
#X connect 2 0 33 0;
#X connect 2 0 37 0;
#X connect 2 1 3 1;
#X connect 2 2 3 2;
#X connect 14 0 36 0;
#X connect 15 0 40 0;
#X connect 18 0 33 1;
#X connect 18 0 34 1;
#X connect 20 0 27 0;
#X connect 21 0 22 0;
#X connect 22 0 21 1;
#X connect 22 0 26 0;
#X connect 23 0 24 1;
#X connect 23 0 25 0;
#X connect 24 0 23 0;
#X connect 27 0 28 0;
#X connect 28 0 22 0;
#X connect 28 1 23 0;
#X connect 29 0 27 0;
#X connect 33 0 35 0;
#X connect 34 0 38 0;
#X connect 35 0 34 0;
#X connect 36 0 35 1;
#X connect 38 0 39 0;
#X connect 39 0 24 0;
#X connect 39 0 21 0;
#X connect 39 0 3 0;
#X connect 39 0 37 1;
#X connect 40 0 36 0;
#X connect 40 1 36 1;
#X coords 0 -1 1 1 300 200 2 10 10;
