#N canvas 411 59 679 679 10;
#X obj 182 171 pack f f;
#X obj 281 494 line~;
#X obj 281 351 pack f f;
#X obj 28 75 sel 0, f 7;
#X obj 28 180 t b b;
#X obj 136 350 f 0;
#X obj 299 463 pack f f;
#X msg 117 242 clear;
#X obj 281 326 *, f 10;
#X obj 280 598 outlet~;
#X obj 28 43 inlet;
#X text 30 23 velo;
#X text 253 16 atk;
#X obj 247 33 inlet;
#X obj 334 226 inlet;
#X text 342 207 dec;
#X obj 406 226 inlet;
#X text 412 208 sus;
#X obj 453 347 inlet;
#X text 459 327 rel;
#X msg 98 98 1;
#X obj 74 120 t f f;
#X obj 348 301 * 0.01;
#X obj 532 347 inlet;
#X text 531 326 lin/exp;
#X obj 532 374 t f f;
#X obj 499 401 expr 1-$f1;
#X obj 280 560 *~;
#X obj 310 560 *~;
#X obj 311 521 pow~ 2;
#X obj 247 75 route 1;
#X obj 273 285 pipe;
#X msg 247 96 2;
#X obj 247 54 int;
#X connect 0 0 1 0;
#X connect 1 0 27 0;
#X connect 1 0 29 0;
#X connect 2 0 1 0;
#X connect 3 0 4 0;
#X connect 3 1 21 0;
#X connect 4 0 5 0;
#X connect 4 1 7 0;
#X connect 5 0 6 0;
#X connect 6 0 1 0;
#X connect 7 0 31 0;
#X connect 8 0 2 0;
#X connect 10 0 3 0;
#X connect 13 0 33 0;
#X connect 14 0 2 1;
#X connect 16 0 22 0;
#X connect 18 0 6 1;
#X connect 20 0 21 0;
#X connect 21 0 31 0;
#X connect 21 1 0 0;
#X connect 22 0 8 1;
#X connect 23 0 25 0;
#X connect 25 0 26 0;
#X connect 25 1 28 1;
#X connect 26 0 27 1;
#X connect 27 0 9 0;
#X connect 28 0 9 0;
#X connect 29 0 28 0;
#X connect 30 0 32 0;
#X connect 30 1 31 1;
#X connect 30 1 0 1;
#X connect 31 0 8 0;
#X connect 32 0 0 1;
#X connect 32 0 31 1;
#X connect 33 0 30 0;
