#N canvas 627 176 340 403 10;
#X obj 203 203 tgl 15 0 empty empty empty 17 7 0 10 -262144 -1 -1 0
1;
#X obj 146 307 inlet~;
#X obj 147 359 snapshot~;
#X obj 205 327 metro 100;
#X floatatom 221 203 5 0 0 0 - - -, f 5;
#X obj 206 221 hsl 89 15 -2 2 0 0 empty empty empty -2 -8 0 10 -262144
-1 -1 0 1;
#X obj 206 239 hsl 89 15 0 1000 0 0 empty empty empty -2 -8 0 10 -262144
-1 -1 0 1;
#X floatatom 260 203 5 10 100 0 - - -, f 5;
#X obj 260 121 loadbang;
#X msg 260 143 20;
#X connect 0 0 3 0;
#X connect 1 0 2 0;
#X connect 2 0 4 0;
#X connect 3 0 2 0;
#X connect 4 0 5 0;
#X connect 4 0 6 0;
#X connect 7 0 3 1;
#X connect 8 0 9 0;
#X connect 9 0 7 0;
#X coords 0 -1 1 1 100 57 2 200 200;
