#N canvas 577 253 499 327 10;
#X obj 61 31 loadbang;
#X obj 21 278 s samplerate;
#X obj 93 128 samplerate~;
#X obj 61 177 snapshot~;
#X obj 101 234 print samplerate;
#X obj 61 97 t b b;
#X msg 61 53 1;
#X obj 21 234 sel 0, f 10;
#X msg 21 256 44100;
#X msg 119 279 0;
#X obj 61 75 metro 500;
#X text 157 160 poll every 0.5s for samplerate.;
#X text 162 180 stop polling when a non-0 value is returned;
#X text 169 201 until then assume 44.1kHz;
#X connect 0 0 6 0;
#X connect 2 0 3 0;
#X connect 3 0 4 0;
#X connect 3 0 7 0;
#X connect 5 0 3 0;
#X connect 5 1 2 0;
#X connect 6 0 10 0;
#X connect 7 0 8 0;
#X connect 7 1 1 0;
#X connect 7 1 9 0;
#X connect 8 0 1 0;
#X connect 9 0 10 0;
#X connect 10 0 5 0;
