#N canvas 569 59 793 679 10;
#X obj 636 224 notein, f 13;
#X obj 636 328 dac~, f 9;
#X obj 479 78 bng 15 250 50 0 loadscale empty empty 17 7 0 10 -262144
-1 -1;
#X text 498 78 Load scale;
#N canvas 7 59 566 679 set.parameters 0;
#X obj 18 12 param.change;
#X obj 18 64 param.set 1;
#X obj 18 43 r \$0-output-gain-s;
#X obj 17 443 r \$0-vca-eg-a-s;
#X obj 17 490 r \$0-vca-eg-d-s;
#X obj 17 540 r \$0-vca-eg-s-s;
#X obj 17 590 r \$0-vca-eg-r-s;
#X obj 177 43 r \$0-vca-eg-shape-s;
#X obj 18 93 r \$0-hpf-freq-s;
#X obj 18 143 r \$0-lpf-freq-s;
#X obj 177 218 r \$0-pitch-eg-amt-s;
#X obj 177 268 r \$0-pitch-eg-a-s;
#X obj 177 318 r \$0-pitch-eg-d-s;
#X obj 177 368 r \$0-pitch-eg-s-s;
#X obj 177 418 r \$0-pitch-eg-r-s;
#X obj 177 468 r \$0-pitch-eg-shape-s;
#X obj 177 115 - 3;
#X obj 177 93 r \$0-pitch-octave-s;
#X obj 177 519 r \$0-pitch-eg-polarity-s;
#X obj 18 193 r \$0-sample-root-s;
#X obj 18 243 r \$0-sample-fine-s;
#X obj 18 114 param.set 2;
#X obj 18 164 param.set 3;
#X obj 18 214 param.set 4;
#X obj 18 264 param.set 5;
#X obj 18 314 param.set 6;
#X obj 18 343 r \$0-sample-start-s;
#X obj 18 393 r \$0-sample-end-s;
#X obj 18 364 param.set 7;
#X obj 18 414 param.set 8;
#X obj 17 464 param.set 9;
#X obj 17 511 param.set 10;
#X obj 17 561 param.set 11;
#X obj 17 611 param.set 12;
#X obj 177 167 r \$0-pitch-mod-type-s;
#X obj 177 568 r \$0-filter-freq-s;
#X obj 377 43 r \$0-filter-type-s;
#X obj 377 94 r \$0-filter-keyfollow-s;
#X obj 177 619 r \$0-filter-q-s;
#X obj 377 148 r \$0-filter-eg-amt-s;
#X obj 377 198 r \$0-filter-eg-a-s;
#X obj 377 248 r \$0-filter-eg-d-s;
#X obj 377 298 r \$0-filter-eg-s-s;
#X obj 377 348 r \$0-filter-eg-r-s;
#X obj 377 398 r \$0-filter-eg-shape-s;
#X obj 377 449 r \$0-filter-eg-polarity-s;
#X obj 177 64 param.set 13;
#X obj 177 137 param.set 14;
#X obj 177 188 param.set 15;
#X obj 177 239 param.set 16;
#X obj 177 289 param.set 17;
#X obj 177 339 param.set 18;
#X obj 177 389 param.set 19;
#X obj 177 439 param.set 20;
#X obj 177 489 param.set 21;
#X obj 177 540 param.set 22;
#X obj 177 589 param.set 23;
#X obj 177 640 param.set 24;
#X obj 377 64 param.set 25;
#X obj 377 115 param.set 26;
#X obj 377 169 param.set 27;
#X obj 377 219 param.set 28;
#X obj 377 269 param.set 29;
#X obj 377 319 param.set 30;
#X obj 377 369 param.set 31;
#X obj 377 419 param.set 32;
#X obj 377 470 param.set 33;
#X obj 18 293 r \$0-sample-stereo-s;
#X obj 377 499 r \$0-pitch-bend-amt-s;
#X obj 377 520 param.set 34;
#X connect 2 0 1 0;
#X connect 3 0 30 0;
#X connect 4 0 31 0;
#X connect 5 0 32 0;
#X connect 6 0 33 0;
#X connect 7 0 46 0;
#X connect 8 0 21 0;
#X connect 9 0 22 0;
#X connect 10 0 49 0;
#X connect 11 0 50 0;
#X connect 12 0 51 0;
#X connect 13 0 52 0;
#X connect 14 0 53 0;
#X connect 15 0 54 0;
#X connect 16 0 47 0;
#X connect 17 0 16 0;
#X connect 18 0 55 0;
#X connect 19 0 23 0;
#X connect 20 0 24 0;
#X connect 26 0 28 0;
#X connect 27 0 29 0;
#X connect 34 0 48 0;
#X connect 35 0 56 0;
#X connect 36 0 58 0;
#X connect 37 0 59 0;
#X connect 38 0 57 0;
#X connect 39 0 60 0;
#X connect 40 0 61 0;
#X connect 41 0 62 0;
#X connect 42 0 63 0;
#X connect 43 0 64 0;
#X connect 44 0 65 0;
#X connect 45 0 66 0;
#X connect 67 0 25 0;
#X connect 68 0 69 0;
#X restore 636 121 pd set.parameters;
#N canvas 570 59 792 679 get.parameters 0;
#X obj 18 21 param.get 1;
#X obj 18 65 s \$0-output-gain;
#X obj 18 625 s \$0-vca-eg-a;
#X obj 168 65 s \$0-vca-eg-d;
#X obj 168 135 s \$0-vca-eg-s;
#X obj 168 205 s \$0-vca-eg-r;
#X msg 18 43 set \$1;
#X msg 18 603 set \$1;
#X msg 168 43 set \$1;
#X msg 168 113 set \$1;
#X msg 168 183 set \$1;
#X msg 168 253 set \$1;
#X obj 168 275 s \$0-vca-eg-shape;
#X msg 18 113 set \$1;
#X msg 18 183 set \$1;
#X obj 18 135 s \$0-hpf-freq;
#X obj 18 205 s \$0-lpf-freq;
#X msg 168 483 set \$1;
#X msg 168 553 set \$1;
#X msg 328 43 set \$1;
#X msg 328 113 set \$1;
#X msg 328 183 set \$1;
#X msg 328 253 set \$1;
#X obj 168 505 s \$0-pitch-eg-amt;
#X obj 168 575 s \$0-pitch-eg-a;
#X obj 328 65 s \$0-pitch-eg-d;
#X obj 328 135 s \$0-pitch-eg-s;
#X obj 328 205 s \$0-pitch-eg-r;
#X obj 328 275 s \$0-pitch-eg-shape;
#X msg 168 345 set \$1;
#X obj 168 367 s \$0-pitch-octave;
#X obj 168 323 + 3;
#X msg 328 323 set \$1;
#X obj 328 345 s \$0-pitch-eg-polarity;
#X msg 18 253 set \$1;
#X msg 18 323 set \$1;
#X obj 18 275 s \$0-sample-root;
#X obj 18 345 s \$0-sample-fine;
#X msg 18 393 set \$1;
#X msg 18 463 set \$1;
#X msg 18 533 set \$1;
#X obj 18 441 param.get 7;
#X obj 18 511 param.get 8;
#X obj 18 415 s \$0-sample-stereo;
#X obj 18 485 s \$0-sample-start;
#X obj 18 555 s \$0-sample-end;
#X obj 168 21 param.get 10;
#X obj 168 91 param.get 11;
#X obj 168 161 param.get 12;
#X obj 168 231 param.get 13;
#X msg 168 413 set \$1;
#X obj 168 435 s \$0-pitch-mod-type;
#X msg 328 393 set \$1;
#X obj 328 371 param.get 23;
#X obj 328 415 s \$0-filter-freq;
#X msg 328 463 set \$1;
#X obj 328 485 s \$0-filter-q;
#X msg 328 533 set \$1;
#X msg 328 603 set \$1;
#X obj 328 625 s \$0-filter-keyfollow;
#X obj 328 555 s \$0-filter-type;
#X obj 328 441 param.get 24;
#X obj 328 511 param.get 25;
#X obj 328 581 param.get 26;
#X obj 328 301 param.get 22;
#X obj 328 231 param.get 21;
#X obj 328 161 param.get 20;
#X obj 328 91 param.get 19;
#X obj 328 21 param.get 18;
#X obj 168 531 param.get 17;
#X obj 168 461 param.get 16;
#X obj 168 391 param.get 15;
#X obj 168 301 param.get 14;
#X obj 18 91 param.get 2;
#X obj 18 161 param.get 3;
#X obj 18 231 param.get 4;
#X obj 18 301 param.get 5;
#X obj 18 371 param.get 6;
#X obj 18 581 param.get 9;
#X msg 508 43 set \$1;
#X msg 508 113 set \$1;
#X msg 508 183 set \$1;
#X obj 508 21 param.get 27;
#X obj 508 91 param.get 28;
#X obj 508 161 param.get 29;
#X obj 508 65 s \$0-filter-eg-amt;
#X obj 508 135 s \$0-filter-eg-a;
#X obj 508 205 s \$0-filter-eg-d;
#X msg 508 253 set \$1;
#X msg 508 323 set \$1;
#X obj 508 231 param.get 30;
#X obj 508 301 param.get 31;
#X obj 508 275 s \$0-filter-eg-s;
#X obj 508 345 s \$0-filter-eg-r;
#X msg 508 393 set \$1;
#X msg 508 463 set \$1;
#X obj 508 415 s \$0-filter-eg-shape;
#X obj 508 485 s \$0-filter-eg-polarity;
#X obj 508 371 param.get 32;
#X obj 508 441 param.get 33;
#X msg 508 533 set \$1;
#X obj 508 511 param.get 34;
#X obj 508 555 s \$0-pitch-bend-amt;
#X connect 0 0 6 0;
#X connect 6 0 1 0;
#X connect 7 0 2 0;
#X connect 8 0 3 0;
#X connect 9 0 4 0;
#X connect 10 0 5 0;
#X connect 11 0 12 0;
#X connect 13 0 15 0;
#X connect 14 0 16 0;
#X connect 17 0 23 0;
#X connect 18 0 24 0;
#X connect 19 0 25 0;
#X connect 20 0 26 0;
#X connect 21 0 27 0;
#X connect 22 0 28 0;
#X connect 29 0 30 0;
#X connect 31 0 29 0;
#X connect 32 0 33 0;
#X connect 34 0 36 0;
#X connect 35 0 37 0;
#X connect 38 0 43 0;
#X connect 39 0 44 0;
#X connect 40 0 45 0;
#X connect 41 0 39 0;
#X connect 42 0 40 0;
#X connect 46 0 8 0;
#X connect 47 0 9 0;
#X connect 48 0 10 0;
#X connect 49 0 11 0;
#X connect 50 0 51 0;
#X connect 52 0 54 0;
#X connect 53 0 52 0;
#X connect 55 0 56 0;
#X connect 57 0 60 0;
#X connect 58 0 59 0;
#X connect 61 0 55 0;
#X connect 62 0 57 0;
#X connect 63 0 58 0;
#X connect 64 0 32 0;
#X connect 65 0 22 0;
#X connect 66 0 21 0;
#X connect 67 0 20 0;
#X connect 68 0 19 0;
#X connect 69 0 18 0;
#X connect 70 0 17 0;
#X connect 71 0 50 0;
#X connect 72 0 31 0;
#X connect 73 0 13 0;
#X connect 74 0 14 0;
#X connect 75 0 34 0;
#X connect 76 0 35 0;
#X connect 77 0 38 0;
#X connect 78 0 7 0;
#X connect 79 0 85 0;
#X connect 80 0 86 0;
#X connect 81 0 87 0;
#X connect 82 0 79 0;
#X connect 83 0 80 0;
#X connect 84 0 81 0;
#X connect 88 0 92 0;
#X connect 89 0 93 0;
#X connect 90 0 88 0;
#X connect 91 0 89 0;
#X connect 94 0 96 0;
#X connect 95 0 97 0;
#X connect 98 0 94 0;
#X connect 99 0 95 0;
#X connect 100 0 102 0;
#X connect 101 0 100 0;
#X restore 636 140 pd get.parameters;
#X obj 636 102 tuning;
#X obj 107 78 hsl 100 15 0 10000 0 0 \$0-vca-eg-a-s \$0-vca-eg-a empty
-2 -8 0 10 -262144 -1 -1 0 1;
#X obj 215 78 nbx 5 15 0 10000 0 0 empty empty empty 0 -8 0 10 -262144
-1 -1 0 256;
#N canvas 6 71 450 300 (subpatch) 0;
#X obj 14 18 inlet;
#X msg 14 40 set \$1;
#X obj 14 62 outlet;
#X connect 0 0 1 0;
#X connect 1 0 2 0;
#X restore 19 77 pd;
#X obj 107 95 hsl 100 15 0 10000 0 0 \$0-vca-eg-d-s \$0-vca-eg-d empty
-2 -8 0 10 -262144 -1 -1 0 1;
#X obj 215 95 nbx 5 15 0 10000 0 0 empty \$0-vca-eg-d empty 0 -8 0
10 -262144 -1 -1 0 256;
#N canvas 0 50 450 300 (subpatch) 0;
#X obj 14 18 inlet;
#X msg 14 40 set \$1;
#X obj 14 62 outlet;
#X connect 0 0 1 0;
#X connect 1 0 2 0;
#X restore 19 94 pd;
#X obj 107 129 hsl 100 15 0 10000 0 0 \$0-vca-eg-r-s \$0-vca-eg-r empty
-2 -8 0 10 -262144 -1 -1 0 1;
#X obj 215 129 nbx 5 15 0 10000 0 0 empty \$0-vca-eg-r empty 0 -8 0
10 -262144 -1 -1 0 256;
#N canvas 0 50 450 300 (subpatch) 0;
#X obj 14 18 inlet;
#X msg 14 40 set \$1;
#X obj 14 62 outlet;
#X connect 0 0 1 0;
#X connect 1 0 2 0;
#X restore 19 128 pd;
#X obj 107 112 hsl 100 15 0 100 0 0 \$0-vca-eg-s-s \$0-vca-eg-s empty
-2 -8 0 10 -262144 -1 -1 0 1;
#X obj 215 112 nbx 5 15 0 100 0 0 empty \$0-vca-eg-s empty 0 -8 0 10
-262144 -1 -1 0 256;
#N canvas 0 50 450 300 (subpatch) 0;
#X obj 14 18 inlet;
#X msg 14 40 set \$1;
#X obj 14 62 outlet;
#X connect 0 0 1 0;
#X connect 1 0 2 0;
#X restore 19 111 pd;
#X obj 407 416 hsl 100 15 -100 12 0 0 \$0-output-gain-s \$0-output-gain
empty -2 -8 0 10 -262144 -1 -1 0 1;
#X obj 515 416 nbx 5 15 -100 12 0 0 empty \$0-output-gain empty 0 -8
0 10 -262144 -1 -1 0 256;
#N canvas 0 50 450 300 (subpatch) 0;
#X obj 14 18 inlet;
#X msg 14 40 set \$1;
#X obj 14 62 outlet;
#X connect 0 0 1 0;
#X connect 1 0 2 0;
#X restore 339 415 pd;
#N canvas 848 434 514 300 synth 0;
#X obj 12 48 inlet;
#X obj 79 48 inlet;
#X obj 12 231 outlet~;
#X obj 12 92 pack 0 0 0;
#X obj 12 114 route 1 2 3 4 5 6 7 8, f 58;
#X obj 403 231 outlet~, f 9;
#X obj 12 136 voice~;
#X obj 12 70 poly 6 1, f 10;
#X obj 62 136 voice~;
#X obj 112 136 voice~;
#X obj 163 136 voice~;
#X obj 263 136 voice~;
#X obj 213 136 voice~;
#X connect 0 0 7 0;
#X connect 1 0 7 1;
#X connect 3 0 4 0;
#X connect 4 0 6 0;
#X connect 4 1 8 0;
#X connect 4 2 9 0;
#X connect 4 3 10 0;
#X connect 4 4 12 0;
#X connect 4 5 11 0;
#X connect 6 0 2 0;
#X connect 6 1 5 0;
#X connect 7 0 3 0;
#X connect 7 1 3 1;
#X connect 7 2 3 2;
#X connect 8 0 2 0;
#X connect 8 1 5 0;
#X connect 9 0 2 0;
#X connect 9 1 5 0;
#X connect 10 0 2 0;
#X connect 10 1 5 0;
#X connect 11 0 2 0;
#X connect 11 1 5 0;
#X connect 12 0 2 0;
#X connect 12 1 5 0;
#X restore 636 249 pd synth;
#N canvas 807 434 450 300 filter 0;
#X obj 74 84 inlet~;
#X obj 74 106 hip~ 30;
#X obj 74 128 hip~ 30;
#X obj 74 150 lop~ 8000;
#X obj 74 172 outlet~;
#X obj 234 84 inlet~;
#X obj 234 106 hip~ 30;
#X obj 234 128 hip~ 30;
#X obj 234 150 lop~ 8000;
#X obj 234 172 outlet~;
#X obj 134 79 param.get 2;
#X obj 134 114 param.get 3;
#X obj 294 79 param.get 2;
#X obj 294 114 param.get 3;
#X connect 0 0 1 0;
#X connect 1 0 2 0;
#X connect 2 0 3 0;
#X connect 3 0 4 0;
#X connect 5 0 6 0;
#X connect 6 0 7 0;
#X connect 7 0 8 0;
#X connect 8 0 9 0;
#X connect 10 0 2 1;
#X connect 10 0 1 1;
#X connect 11 0 3 1;
#X connect 12 0 7 1;
#X connect 12 0 6 1;
#X connect 13 0 8 1;
#X restore 636 275 pd filter;
#X obj 254 146 tgl 15 0 \$0-vca-eg-shape-s \$0-vca-eg-shape empty 17
7 0 10 -262144 -1 -1 0 1;
#X text 173 146 Exponential;
#X obj 107 213 hsl 100 15 0 10000 0 0 \$0-pitch-eg-a-s \$0-pitch-eg-a
empty -2 -8 0 10 -262144 -1 -1 0 1;
#X obj 215 213 nbx 5 15 0 10000 0 0 empty \$0-pitch-eg-a empty 0 -8
0 10 -262144 -1 -1 0 256;
#N canvas 0 50 450 300 (subpatch) 0;
#X obj 14 18 inlet;
#X msg 14 40 set \$1;
#X obj 14 62 outlet;
#X connect 0 0 1 0;
#X connect 1 0 2 0;
#X restore 19 212 pd;
#X obj 107 230 hsl 100 15 0 10000 0 0 \$0-pitch-eg-d-s \$0-pitch-eg-d
empty -2 -8 0 10 -262144 -1 -1 0 1;
#X obj 215 230 nbx 5 15 0 10000 0 0 empty \$0-pitch-eg-d empty 0 -8
0 10 -262144 -1 -1 0 256;
#N canvas 0 50 450 300 (subpatch) 0;
#X obj 14 18 inlet;
#X msg 14 40 set \$1;
#X obj 14 62 outlet;
#X connect 0 0 1 0;
#X connect 1 0 2 0;
#X restore 19 229 pd;
#X obj 107 264 hsl 100 15 0 10000 0 0 \$0-pitch-eg-r-s \$0-pitch-eg-r
empty -2 -8 0 10 -262144 -1 -1 0 1;
#X obj 215 264 nbx 5 15 0 10000 0 0 empty \$0-pitch-eg-r empty 0 -8
0 10 -262144 -1 -1 0 256;
#N canvas 0 50 450 300 (subpatch) 0;
#X obj 14 18 inlet;
#X msg 14 40 set \$1;
#X obj 14 62 outlet;
#X connect 0 0 1 0;
#X connect 1 0 2 0;
#X restore 19 263 pd;
#X obj 107 247 hsl 100 15 0 100 0 0 \$0-pitch-eg-s-s \$0-pitch-eg-s
empty -2 -8 0 10 -262144 -1 -1 0 1;
#X obj 215 247 nbx 5 15 0 100 0 0 empty \$0-pitch-eg-s empty 0 -8 0
10 -262144 -1 -1 0 256;
#N canvas 0 50 450 300 (subpatch) 0;
#X obj 14 18 inlet;
#X msg 14 40 set \$1;
#X obj 14 62 outlet;
#X connect 0 0 1 0;
#X connect 1 0 2 0;
#X restore 19 246 pd;
#X obj 254 281 tgl 15 0 \$0-pitch-eg-shape-s \$0-pitch-eg-shape empty
17 7 0 10 -262144 -1 -1 0 1;
#X text 173 281 Exponential;
#X obj 107 196 hsl 100 15 0 4 0 0 \$0-pitch-eg-amt-s \$0-pitch-eg-amt
empty -2 -8 0 10 -262144 -1 -1 0 1;
#X obj 215 196 nbx 5 15 0 4 0 0 empty \$0-pitch-eg-amt empty 0 -8 0
10 -262144 -1 -1 0 256;
#N canvas 4 59 450 300 (subpatch) 0;
#X obj 14 18 inlet;
#X msg 14 40 set \$1;
#X obj 14 62 outlet;
#X connect 0 0 1 0;
#X connect 1 0 2 0;
#X restore 19 195 pd;
#X text 104 176 PITCH ENVELOPE;
#X text 274 78 ms;
#X text 274 95 ms;
#X text 274 129 ms;
#X text 274 112 %;
#X text 51 112 Sustain;
#X text 51 129 Release;
#X text 65 95 Decay;
#X text 58 78 Attack;
#X text 273 196 oct;
#X text 273 213 ms;
#X text 273 230 ms;
#X text 273 264 ms;
#X text 273 247 %;
#X text 58 196 Amount;
#X text 58 213 Attack;
#X text 65 229 Decay;
#X text 51 247 Sustain;
#X text 51 264 Release;
#X text 572 416 dB;
#X obj 404 433 nbx 5 15 10 200 0 0 \$0-hpf-freq-s \$0-hpf-freq empty
0 -8 0 10 -262144 -1 -1 10 256;
#X obj 514 433 nbx 5 15 1000 22000 0 0 \$0-lpf-freq-s \$0-lpf-freq
empty 0 -8 0 10 -262144 -1 -1 1000 256;
#X text 379 433 HPF;
#X text 489 433 LPF;
#X obj 404 247 hradio 15 1 0 7 \$0-pitch-octave-s \$0-pitch-octave
empty 0 -8 0 10 -262144 -1 -1 3;
#X text 509 247 +3;
#X obj 104 281 tgl 15 0 \$0-pitch-eg-polarity-s \$0-pitch-eg-polarity
empty 17 7 0 10 -262144 -1 -1 0 1;
#X text 44 281 Negative;
#X text 464 433 Hz;
#X text 571 433 Hz;
#X text 403 396 OUTPUT;
#X text 372 416 Gain;
#X text 337 247 Octave -3;
#X obj 107 348 hsl 100 15 0 10000 0 0 \$0-filter-eg-a-s \$0-filter-eg-a
empty -2 -8 0 10 -262144 -1 -1 0 1;
#X obj 215 348 nbx 5 15 0 10000 0 0 empty \$0-filter-eg-a empty 0 -8
0 10 -262144 -1 -1 0 256;
#N canvas 0 50 450 300 (subpatch) 0;
#X obj 14 18 inlet;
#X msg 14 40 set \$1;
#X obj 14 62 outlet;
#X connect 0 0 1 0;
#X connect 1 0 2 0;
#X restore 19 347 pd;
#X obj 107 365 hsl 100 15 0 10000 0 0 \$0-filter-eg-d-s \$0-filter-eg-d
empty -2 -8 0 10 -262144 -1 -1 0 1;
#X obj 215 365 nbx 5 15 0 10000 0 0 empty \$0-filter-eg-d empty 0 -8
0 10 -262144 -1 -1 0 256;
#N canvas 0 50 450 300 (subpatch) 0;
#X obj 14 18 inlet;
#X msg 14 40 set \$1;
#X obj 14 62 outlet;
#X connect 0 0 1 0;
#X connect 1 0 2 0;
#X restore 19 364 pd;
#X obj 107 399 hsl 100 15 0 10000 0 0 \$0-filter-eg-r-s \$0-filter-eg-r
empty -2 -8 0 10 -262144 -1 -1 0 1;
#X obj 215 399 nbx 5 15 0 10000 0 0 empty \$0-filter-eg-r empty 0 -8
0 10 -262144 -1 -1 0 256;
#N canvas 0 50 450 300 (subpatch) 0;
#X obj 14 18 inlet;
#X msg 14 40 set \$1;
#X obj 14 62 outlet;
#X connect 0 0 1 0;
#X connect 1 0 2 0;
#X restore 19 398 pd;
#X obj 107 382 hsl 100 15 0 100 0 0 \$0-filter-eg-s-s \$0-filter-eg-s
empty -2 -8 0 10 -262144 -1 -1 0 1;
#X obj 215 382 nbx 5 15 0 100 0 0 empty \$0-filter-eg-s empty 0 -8
0 10 -262144 -1 -1 0 256;
#N canvas 0 50 450 300 (subpatch) 0;
#X obj 14 18 inlet;
#X msg 14 40 set \$1;
#X obj 14 62 outlet;
#X connect 0 0 1 0;
#X connect 1 0 2 0;
#X restore 19 381 pd;
#X obj 254 416 tgl 15 0 \$0-filter-eg-shape-s \$0-filter-eg-shape empty
17 7 0 10 -262144 -1 -1 0 1;
#X text 173 416 Exponential;
#X obj 107 331 hsl 100 15 0 8 0 0 \$0-filter-eg-amt-s \$0-filter-eg-amt
empty -2 -8 0 10 -262144 -1 -1 0 1;
#X obj 215 331 nbx 5 15 0 8 0 0 empty \$0-filter-eg-amt empty 0 -8
0 10 -262144 -1 -1 0 256;
#N canvas 0 50 450 300 (subpatch) 0;
#X obj 14 18 inlet;
#X msg 14 40 set \$1;
#X obj 14 62 outlet;
#X connect 0 0 1 0;
#X connect 1 0 2 0;
#X restore 19 330 pd;
#X text 273 331 oct;
#X text 273 348 ms;
#X text 273 365 ms;
#X text 273 399 ms;
#X text 273 382 %;
#X text 58 331 Amount;
#X text 58 348 Attack;
#X text 65 364 Decay;
#X text 51 382 Sustain;
#X text 51 399 Release;
#X obj 104 416 tgl 15 0 \$0-filter-eg-polarity-s \$0-filter-eg-polarity
empty 17 7 0 10 -262144 -1 -1 0 1;
#X text 44 416 Negative;
#X text 104 311 FILTER ENVELOPE;
#X obj 407 348 hsl 100 15 0 20 0 0 \$0-filter-q-s \$0-filter-q empty
-2 -8 0 10 -262144 -1 -1 0 1;
#X obj 515 348 nbx 5 15 0 20 0 0 empty \$0-filter-q empty 0 -8 0 10
-262144 -1 -1 0 256;
#N canvas 0 50 450 300 (subpatch) 0;
#X obj 14 18 inlet;
#X msg 14 40 set \$1;
#X obj 14 62 outlet;
#X connect 0 0 1 0;
#X connect 1 0 2 0;
#X restore 319 347 pd;
#X obj 407 331 hsl 100 15 20 22000 0 0 \$0-filter-freq-s \$0-filter-freq
empty -2 -8 0 10 -262144 -1 -1 0 1;
#X obj 515 331 nbx 5 15 20 22000 0 0 empty \$0-filter-freq empty 0
-8 0 10 -262144 -1 -1 20 256;
#N canvas 0 50 450 300 (subpatch) 0;
#X obj 14 18 inlet;
#X msg 14 40 set \$1;
#X obj 14 62 outlet;
#X connect 0 0 1 0;
#X connect 1 0 2 0;
#X restore 319 330 pd;
#X text 404 311 FILTER;
#X text 104 58 AMPLITUDE ENVELOPE;
#X text 372 331 Freq;
#X text 573 331 Hz;
#X text 393 348 Q;
#X text 299 33 SAMPLER;
#X text 25 451 Sevish;
#X obj 404 129 nbx 5 15 0 127 0 0 \$0-sample-root-s \$0-sample-root
empty 0 -8 0 10 -262144 -1 -1 0 256;
#X text 337 129 Root note;
#X obj 404 146 nbx 5 15 -100 100 0 0 \$0-sample-fine-s \$0-sample-fine
empty 0 -8 0 10 -262144 -1 -1 0 256;
#X obj 254 433 tgl 15 0 \$0-filter-keyfollow-s \$0-filter-keyfollow
empty 17 7 0 10 -262144 -1 -1 0 1;
#X text 187 433 Keyfollow;
#N canvas 696 321 450 300 gain 0;
#X obj 103 34 inlet~;
#X obj 173 34 inlet~;
#X obj 103 244 outlet~;
#X obj 173 244 outlet~;
#X obj 104 174 *~, f 4;
#X obj 199 96 param.get 1;
#X obj 199 122 expr pow(10 \, ($f1/20) );
#X obj 174 174 *~, f 9;
#X connect 0 0 4 0;
#X connect 1 0 7 0;
#X connect 4 0 2 0;
#X connect 5 0 6 0;
#X connect 6 0 4 1;
#X connect 6 0 7 1;
#X connect 7 0 3 0;
#X restore 636 302 pd gain;
#X obj 339 78 bng 15 250 50 0 loadsample empty empty 17 7 0 10 -262144
-1 -1;
#X text 358 78 Load sample;
#X obj 404 264 hradio 15 1 0 3 \$0-pitch-mod-type-s \$0-pitch-mod-type
empty 0 -8 0 10 -262144 -1 -1 3;
#X text 461 146 cents;
#X text 461 129 C=60 A=69;
#X text 404 231 PITCH;
#X text 337 146 Fine tune;
#X obj 407 163 hsl 100 15 0 1 0 0 \$0-sample-start-s \$0-sample-start
empty -2 -8 0 10 -262144 -1 -1 0 1;
#N canvas 0 50 450 300 (subpatch) 0;
#X obj 14 18 inlet;
#X msg 14 40 set \$1;
#X obj 14 62 outlet;
#X connect 0 0 1 0;
#X connect 1 0 2 0;
#X restore 319 162 pd;
#X text 365 163 Start;
#X obj 407 180 hsl 100 15 0 1 0 0 \$0-sample-end-s \$0-sample-end empty
-2 -8 0 10 -262144 -1 -1 0 1;
#N canvas 0 50 450 300 (subpatch) 0;
#X obj 14 18 inlet;
#X msg 14 40 set \$1;
#X obj 14 62 outlet;
#X connect 0 0 1 0;
#X connect 1 0 2 0;
#X restore 319 179 pd;
#X text 365 180 End;
#X obj 554 197 tgl 15 0 \$0-sample-stereo-s \$0-sample-stereo empty
17 7 0 10 -262144 -1 -1 0 1;
#X text 522 197 Mono;
#X text 402 112 SAMPLE;
#X text 330 264 Modulation;
#X text 454 264 Slow/Fast/LP-Noise;
#X obj 404 365 hradio 15 1 0 2 \$0-filter-type-s \$0-filter-type empty
0 -8 0 10 -262144 -1 -1 3;
#X text 372 365 Type;
#X text 436 365 LP/BP;
#X obj 515 163 nbx 5 15 0 1 0 0 empty \$0-sample-start empty 0 -8 0
10 -262144 -1 -1 0 256;
#X obj 515 180 nbx 5 15 0 1 0 0 empty \$0-sample-end empty 0 -8 0 10
-262144 -1 -1 0 256;
#X obj 404 197 nbx 5 15 0 2400 0 0 \$0-pitch-bend-amt-s \$0-pitch-bend-amt
empty 0 -8 0 10 -262144 -1 -1 0 256;
#X text 330 197 Pitch bend;
#X text 461 197 cents;
#N canvas 550 114 560 620 modulation 0;
#X obj 269 341 ctlin 1;
#X obj 269 363 / 127;
#X obj 102 166 phasor~;
#X obj 202 62 param.get 15;
#X obj 202 84 route 0 1 2, f 16;
#X msg 102 140 1;
#X msg 138 140 5;
#X obj 323 210 noise~;
#X obj 202 280 *~;
#X obj 322 275 *~, f 9;
#X msg 250 254 0;
#X msg 220 254 1;
#X msg 382 211 0;
#X obj 202 386 *~, f 10;
#X obj 202 430 s~ modulation;
#X obj 202 408 +~ 1;
#X obj 22 200 expr~ (abs($v1-0.5)-0.25)*0.1;
#X obj 323 231 lop~ 2;
#X obj 323 253 lop~ 2;
#X msg 190 254 0.5;
#X msg 412 211 2;
#X connect 0 0 1 0;
#X connect 1 0 13 1;
#X connect 2 0 16 0;
#X connect 3 0 4 0;
#X connect 4 0 5 0;
#X connect 4 0 12 0;
#X connect 4 0 19 0;
#X connect 4 1 6 0;
#X connect 4 1 12 0;
#X connect 4 1 11 0;
#X connect 4 2 20 0;
#X connect 4 2 10 0;
#X connect 5 0 2 0;
#X connect 6 0 2 0;
#X connect 7 0 17 0;
#X connect 8 0 13 0;
#X connect 9 0 13 0;
#X connect 10 0 8 1;
#X connect 11 0 8 1;
#X connect 12 0 9 1;
#X connect 13 0 15 0;
#X connect 15 0 14 0;
#X connect 16 0 8 0;
#X connect 17 0 18 0;
#X connect 18 0 9 0;
#X connect 19 0 8 1;
#X connect 20 0 9 1;
#X restore 636 159 pd modulation;
#X obj 140 510 param.get 23;
#X text 137 493 filter frequency;
#X obj 140 532 sig~;
#X obj 140 554 lop~ 5;
#X obj 140 576 s~ filter-frequency;
#N canvas 706 312 525 309 pitchbend 0;
#X obj 87 100 bendin;
#X obj 199 81 param.get 34;
#X obj 199 103 expr pow(2 \, ($f1/1200));
#X text 198 64 pitch bend amt;
#X floatatom 199 125 5 0 0 0 - - -, f 5;
#X obj 87 210 s pitchbend;
#X obj 87 122 / 8192;
#X obj 199 144 t b f;
#X obj 87 144 - 1;
#X obj 87 185 expr pow($f2 \, $f1), f 21;
#X connect 0 0 6 0;
#X connect 1 0 2 0;
#X connect 2 0 4 0;
#X connect 4 0 7 0;
#X connect 6 0 8 0;
#X connect 7 0 9 0;
#X connect 7 1 9 1;
#X connect 8 0 9 0;
#X connect 9 0 5 0;
#X restore 636 178 pd pitchbend;
#X obj 636 83 samplerate;
#X connect 0 0 22 0;
#X connect 0 1 22 1;
#X connect 7 0 9 0;
#X connect 8 0 7 0;
#X connect 9 0 8 0;
#X connect 10 0 12 0;
#X connect 11 0 10 0;
#X connect 12 0 11 0;
#X connect 13 0 15 0;
#X connect 14 0 13 0;
#X connect 15 0 14 0;
#X connect 16 0 18 0;
#X connect 17 0 16 0;
#X connect 18 0 17 0;
#X connect 19 0 21 0;
#X connect 20 0 19 0;
#X connect 21 0 20 0;
#X connect 22 0 23 0;
#X connect 22 1 23 1;
#X connect 23 0 124 0;
#X connect 23 1 124 1;
#X connect 26 0 28 0;
#X connect 27 0 26 0;
#X connect 28 0 27 0;
#X connect 29 0 31 0;
#X connect 30 0 29 0;
#X connect 31 0 30 0;
#X connect 32 0 34 0;
#X connect 33 0 32 0;
#X connect 34 0 33 0;
#X connect 35 0 37 0;
#X connect 36 0 35 0;
#X connect 37 0 36 0;
#X connect 40 0 42 0;
#X connect 41 0 40 0;
#X connect 42 0 41 0;
#X connect 76 0 78 0;
#X connect 77 0 76 0;
#X connect 78 0 77 0;
#X connect 79 0 81 0;
#X connect 80 0 79 0;
#X connect 81 0 80 0;
#X connect 82 0 84 0;
#X connect 83 0 82 0;
#X connect 84 0 83 0;
#X connect 85 0 87 0;
#X connect 86 0 85 0;
#X connect 87 0 86 0;
#X connect 90 0 92 0;
#X connect 91 0 90 0;
#X connect 92 0 91 0;
#X connect 106 0 108 0;
#X connect 107 0 106 0;
#X connect 108 0 107 0;
#X connect 109 0 111 0;
#X connect 110 0 109 0;
#X connect 111 0 110 0;
#X connect 124 0 1 0;
#X connect 124 1 1 1;
#X connect 132 0 133 0;
#X connect 133 0 146 0;
#X connect 135 0 136 0;
#X connect 136 0 147 0;
#X connect 146 0 132 0;
#X connect 147 0 135 0;
#X connect 152 0 154 0;
#X connect 154 0 155 0;
#X connect 155 0 156 0;
#X coords 0 -1 1 1 600 450 2 20 20;
