#N canvas 968 265 394 469 10;
#X obj 47 382 outlet~;
#X obj 46 19 inlet;
#X text 52 60 midinote;
#X text 285 60 velocity;
#X obj 46 42 unpack, f 34;
#N canvas 96 187 657 366 amp-eg 0;
#X obj 103 55 inlet~;
#X obj 243 55 inlet;
#X text 99 35 audio;
#X text 241 34 velocity;
#X obj 102 285 *~;
#X obj 243 92 expr ($f1*$f1)/16129;
#X text 568 211 lin/exp;
#X text 372 131 amp attack;
#X text 427 151 amp decay;
#X text 474 171 amp sustain%;
#X text 521 191 amp release;
#X obj 243 232 adsr~, f 34;
#X obj 102 320 outlet~;
#X obj 171 55 inlet~;
#X text 167 35 audio;
#X obj 172 285 *~;
#X obj 172 320 outlet~, f 20;
#X obj 290 130 param.get 9;
#X obj 337 150 param.get 10;
#X obj 384 170 param.get 11;
#X obj 431 190 param.get 12;
#X obj 478 210 param.get 13;
#X connect 0 0 4 0;
#X connect 1 0 5 0;
#X connect 4 0 12 0;
#X connect 5 0 11 0;
#X connect 11 0 4 1;
#X connect 11 0 15 1;
#X connect 13 0 15 0;
#X connect 15 0 16 0;
#X connect 17 0 11 1;
#X connect 18 0 11 2;
#X connect 19 0 11 3;
#X connect 20 0 11 4;
#X connect 21 0 11 5;
#X restore 47 295 pd amp-eg;
#N canvas 318 88 951 634 pitch 1;
#X obj 553 41 inlet;
#X text 690 77 pitch attack;
#X text 737 97 pitch decay;
#X text 784 117 pitch sustain%;
#X text 831 137 pitc release;
#X text 878 157 lin/exp;
#X obj 389 244 pow~, f 6;
#X text 387 27 pitch EG amt 0-1 oct;
#X obj 389 67 + 1;
#X obj 553 75 != 0;
#X msg 447 182 1;
#X msg 479 182 -1;
#X obj 447 160 sel 0;
#X text 475 123 polarity;
#X obj 454 221 *~ 1;
#X text 550 23 velocity;
#X obj 249 530 outlet~;
#X obj 24 111 text get tuning;
#X text 384 450 octave;
#X obj 294 472 expr pow(2 \, $f1);
#X obj 249 501 *~ 1;
#N canvas 713 277 450 300 sample-tuning 0;
#X obj 107 195 mtof;
#X obj 107 41 loadbang;
#X msg 107 63 60;
#X obj 144 152 +, f 5;
#X obj 154 129 t b f;
#X obj 107 217 outlet;
#X floatatom 52 244 8 0 0 0 - - -, f 8;
#X obj 144 63 param.get 4;
#X obj 154 85 param.get 5;
#X obj 154 107 * -0.01;
#X connect 0 0 5 0;
#X connect 0 0 6 0;
#X connect 1 0 2 0;
#X connect 2 0 0 0;
#X connect 3 0 0 0;
#X connect 4 0 3 0;
#X connect 4 1 3 1;
#X connect 7 0 3 0;
#X connect 8 0 9 0;
#X connect 9 0 4 0;
#X restore 88 170 pd sample-tuning;
#X obj 81 214 / 1, f 5;
#X obj 200 124 r samplerate;
#X obj 293 124 r samples;
#X msg 81 148 261.626;
#X obj 245 194 /, f 5;
#X obj 293 146 t b f;
#X obj 168 260 *, f 5;
#X obj 245 216 t b f;
#X obj 88 192 t b f;
#X obj 24 78 inlet;
#X text 21 60 midinote, f 10;
#X obj 600 76 param.get 17;
#X obj 647 96 param.get 18;
#X obj 694 116 param.get 19;
#X obj 741 136 param.get 20;
#X obj 788 156 param.get 21;
#X obj 389 43 param.get 16;
#X obj 447 138 param.get 22;
#X obj 294 450 param.get 14;
#X obj 537 502 outlet;
#X obj 150 408 *~;
#X obj 151 384 r~ modulation;
#X obj 249 472 *~;
#X obj 553 178 adsr~, f 34;
#X obj 179 311 r pitchbend;
#X obj 179 333 t b f;
#X obj 168 358 * 1, f 5;
#X connect 0 0 9 0;
#X connect 6 0 44 1;
#X connect 8 0 6 0;
#X connect 9 0 45 0;
#X connect 10 0 14 1;
#X connect 11 0 14 1;
#X connect 12 0 10 0;
#X connect 12 1 11 0;
#X connect 14 0 6 1;
#X connect 17 0 22 0;
#X connect 17 0 41 0;
#X connect 19 0 20 1;
#X connect 20 0 16 0;
#X connect 21 0 30 0;
#X connect 22 0 28 0;
#X connect 23 0 26 0;
#X connect 24 0 27 0;
#X connect 25 0 22 0;
#X connect 26 0 29 0;
#X connect 27 0 26 0;
#X connect 27 1 26 1;
#X connect 28 0 48 0;
#X connect 29 0 28 0;
#X connect 29 1 28 1;
#X connect 30 0 22 0;
#X connect 30 1 22 1;
#X connect 31 0 17 0;
#X connect 33 0 45 1;
#X connect 34 0 45 2;
#X connect 35 0 45 3;
#X connect 36 0 45 4;
#X connect 37 0 45 5;
#X connect 38 0 8 0;
#X connect 39 0 12 0;
#X connect 40 0 19 0;
#X connect 42 0 44 0;
#X connect 43 0 42 0;
#X connect 44 0 20 0;
#X connect 45 0 14 0;
#X connect 46 0 47 0;
#X connect 47 0 48 0;
#X connect 47 1 48 1;
#X connect 48 0 42 1;
#X restore 46 121 pd pitch;
#N canvas 459 186 432 529 phasor 0;
#X obj 45 64 inlet~;
#X obj 130 64 inlet;
#X obj 45 488 outlet~;
#X obj 45 235 phasor~, f 13;
#X obj 70 266 r samples;
#X obj 87 90 route 0;
#X obj 45 357 *~ 1, f 6;
#X msg 133 113 0;
#X text 127 49 velocity;
#X obj 84 334 * 1, f 5;
#X obj 306 65 param.get 8;
#X obj 45 466 +~ 0;
#X text 224 48 start;
#X text 333 50 end;
#X text 23 49 signal(Hz);
#X obj 70 444 * 1, f 5;
#X obj 208 87 t b f;
#X obj 208 65 param.get 7;
#X obj 46 211 /~ 1;
#X obj 281 128 -;
#X obj 281 150 t b f;
#X connect 0 0 18 0;
#X connect 1 0 5 0;
#X connect 3 0 6 0;
#X connect 4 0 9 0;
#X connect 4 0 15 0;
#X connect 5 1 7 0;
#X connect 6 0 11 0;
#X connect 7 0 3 1;
#X connect 9 0 6 1;
#X connect 10 0 19 0;
#X connect 11 0 2 0;
#X connect 15 0 11 1;
#X connect 16 0 15 0;
#X connect 16 0 19 0;
#X connect 16 1 15 1;
#X connect 16 1 19 1;
#X connect 17 0 16 0;
#X connect 18 0 3 0;
#X connect 19 0 18 1;
#X connect 19 0 20 0;
#X connect 20 0 9 0;
#X connect 20 1 9 1;
#X restore 46 164 pd phasor;
#N canvas 333 126 827 559 filter 0;
#X obj 35 39 inlet~;
#X obj 145 39 inlet~;
#X obj 35 536 outlet~;
#X obj 145 536 outlet~, f 10;
#X obj 427 37 inlet;
#X text 752 153 lin/exp;
#X obj 263 230 pow~, f 6;
#X obj 263 63 + 1;
#X obj 427 72 != 0;
#X msg 321 168 1;
#X msg 353 168 -1;
#X obj 321 146 sel 0;
#X text 349 109 polarity;
#X obj 328 207 *~ 1;
#X text 424 19 velocity;
#X obj 283 292 inlet;
#X text 270 275 note freq;
#X text 564 73 vcf attack;
#X text 611 93 vcf decay;
#X text 658 113 vcf sustain%;
#X text 705 133 vcf release;
#X obj 474 72 param.get 28;
#X obj 521 92 param.get 29;
#X obj 568 112 param.get 30;
#X obj 615 132 param.get 31;
#X obj 662 152 param.get 32;
#X text 354 275 keyfollow;
#X obj 154 352 param.get 24;
#X text 165 335 filter Q;
#X obj 346 292 param.get 26;
#X obj 264 406 *~;
#X obj 35 445 vcf~, f 13;
#X obj 145 445 vcf~, f 13;
#X obj 283 314 sig~;
#X obj 283 336 *~, f 5;
#X obj 300 383 *~, f 7;
#X obj 346 314 expr 1-$f1;
#X text 261 23 vcf EG amt 0-1 oct;
#X obj 263 39 param.get 27;
#X obj 321 124 param.get 33;
#X obj 300 361 r~ filter-frequency;
#X obj 256 452 param.get 25;
#X text 264 435 0=LP 1=BP;
#X obj 256 474 == 0;
#X obj 158 511 *~ 1;
#X obj 48 511 *~ 1;
#X obj 427 174 adsr~, f 34;
#X connect 0 0 31 0;
#X connect 1 0 32 0;
#X connect 4 0 8 0;
#X connect 6 0 30 0;
#X connect 7 0 6 0;
#X connect 8 0 46 0;
#X connect 9 0 13 1;
#X connect 10 0 13 1;
#X connect 11 0 9 0;
#X connect 11 1 10 0;
#X connect 13 0 6 1;
#X connect 15 0 33 0;
#X connect 21 0 46 1;
#X connect 22 0 46 2;
#X connect 23 0 46 3;
#X connect 24 0 46 4;
#X connect 25 0 46 5;
#X connect 27 0 31 2;
#X connect 27 0 32 2;
#X connect 29 0 34 1;
#X connect 29 0 36 0;
#X connect 30 0 31 1;
#X connect 30 0 32 1;
#X connect 31 0 2 0;
#X connect 31 1 45 0;
#X connect 32 0 3 0;
#X connect 32 1 44 0;
#X connect 33 0 34 0;
#X connect 34 0 30 1;
#X connect 35 0 30 1;
#X connect 36 0 35 1;
#X connect 38 0 7 0;
#X connect 39 0 11 0;
#X connect 40 0 35 0;
#X connect 41 0 43 0;
#X connect 43 0 44 1;
#X connect 43 0 45 1;
#X connect 44 0 3 0;
#X connect 45 0 2 0;
#X connect 46 0 13 0;
#X restore 48 251 pd filter;
#N canvas 810 347 450 300 sampler 0;
#X obj 77 193 tabread4~ sampleL;
#X obj 217 193 tabread4~ sampleR;
#X obj 217 215 outlet~;
#X obj 77 215 outlet~;
#X obj 101 60 inlet~;
#X connect 0 0 3 0;
#X connect 1 0 2 0;
#X connect 4 0 0 0;
#X connect 4 0 1 0;
#X restore 47 208 pd sampler;
#X obj 108 382 outlet~;
#X obj 162 277 param.get 6;
#X text 152 261 stereo=0 mono=1;
#X obj 68 342 *~ 0;
#X obj 108 342 *~ 1;
#X obj 162 306 == 0;
#X connect 1 0 4 0;
#X connect 4 0 6 0;
#X connect 4 1 5 2;
#X connect 4 1 6 1;
#X connect 4 1 7 1;
#X connect 4 1 8 3;
#X connect 5 0 0 0;
#X connect 5 0 13 0;
#X connect 5 1 14 0;
#X connect 6 0 7 0;
#X connect 6 1 8 2;
#X connect 7 0 9 0;
#X connect 8 0 5 0;
#X connect 8 1 5 1;
#X connect 9 0 8 0;
#X connect 9 1 8 1;
#X connect 11 0 13 1;
#X connect 11 0 15 0;
#X connect 13 0 10 0;
#X connect 14 0 10 0;
#X connect 15 0 14 1;
