#N canvas 441 288 450 300 10;
#X obj 87 100 bendin;
#X obj 199 103 expr pow(2 \, ($f1/1200));
#X floatatom 199 125 5 0 0 0 - - -, f 5;
#X obj 87 210 s pitchbend;
#X obj 87 122 / 8192;
#X obj 199 144 t b f;
#X obj 87 144 - 1;
#X obj 87 185 expr pow($f2 \, $f1), f 21;
#X obj 199 81 inlet;
#X connect 0 0 4 0;
#X connect 1 0 2 0;
#X connect 2 0 5 0;
#X connect 4 0 6 0;
#X connect 5 0 7 0;
#X connect 5 1 7 1;
#X connect 6 0 7 0;
#X connect 7 0 3 0;
#X connect 8 0 1 0;
