#N canvas 140 119 1085 475 10;
#X obj 630 125 notein, f 12;
#X obj 629 284 *~, f 4;
#X obj 629 313 dac~;
#X obj 490 43 bng 15 250 50 0 loadscale empty empty 17 7 0 10 -262144
-1 -1;
#X text 509 42 Load scale;
#N canvas 4 161 685 559 set.parameters 0;
#X obj 18 12 param.change;
#X obj 18 64 param.set 1;
#X obj 18 43 r \$0-output-gain-s;
#X obj 18 233 r \$0-vca-eg-a-s;
#X obj 18 283 r \$0-vca-eg-d-s;
#X obj 18 333 r \$0-vca-eg-s-s;
#X obj 18 383 r \$0-vca-eg-r-s;
#X obj 18 433 r \$0-vca-eg-shape-s;
#X obj 18 93 r \$0-lpf-freq-s;
#X obj 198 64 param.set 9;
#X obj 198 114 param.set 10;
#X obj 198 164 param.set 11;
#X obj 198 214 param.set 12;
#X obj 198 264 param.set 13;
#X obj 198 314 param.set 14;
#X obj 198 43 r \$0-pitch-eg-amt-s;
#X obj 198 93 r \$0-pitch-eg-a-s;
#X obj 198 143 r \$0-pitch-eg-d-s;
#X obj 198 193 r \$0-pitch-eg-s-s;
#X obj 198 243 r \$0-pitch-eg-r-s;
#X obj 198 293 r \$0-pitch-eg-shape-s;
#X obj 18 165 - 3;
#X obj 18 143 r \$0-pitch-octave-s;
#X obj 198 343 r \$0-pitch-eg-polarity-s;
#X obj 18 114 param.set 2;
#X obj 18 187 param.set 3;
#X obj 18 254 param.set 4;
#X obj 18 304 param.set 5;
#X obj 18 354 param.set 6;
#X obj 18 404 param.set 7;
#X obj 18 454 param.set 8;
#X obj 198 364 param.set 15;
#X obj 398 43 r \$0-osc2-amt-s;
#X obj 398 64 param.set 16;
#X obj 398 114 param.set 17;
#X obj 398 93 r \$0-osc2-ratio-s;
#X obj 398 143 r \$0-osc3-amt-s;
#X obj 398 193 r \$0-osc3-ratio-s;
#X obj 398 243 r \$0-osc4-amt-s;
#X obj 398 293 r \$0-osc4-ratio-s;
#X obj 398 343 r \$0-osc5-amt-s;
#X obj 398 393 r \$0-osc5-ratio-s;
#X obj 548 43 r \$0-osc6-amt-s;
#X obj 548 93 r \$0-osc6-ratio-s;
#X obj 398 164 param.set 18;
#X obj 398 214 param.set 19;
#X obj 398 264 param.set 20;
#X obj 398 314 param.set 21;
#X obj 398 364 param.set 22;
#X obj 398 414 param.set 23;
#X obj 548 64 param.set 24;
#X obj 548 114 param.set 25;
#X obj 548 143 r \$0-osc7-amt-s;
#X obj 548 193 r \$0-osc7-ratio-s;
#X obj 548 243 r \$0-osc8-amt-s;
#X obj 548 293 r \$0-osc8-ratio-s;
#X obj 548 164 param.set 26;
#X obj 548 214 param.set 27;
#X obj 548 264 param.set 28;
#X obj 548 314 param.set 29;
#X obj 548 364 param.set 30;
#X obj 548 343 r \$0-pitch-bend-amt-s;
#X connect 2 0 1 0;
#X connect 3 0 26 0;
#X connect 4 0 27 0;
#X connect 5 0 28 0;
#X connect 6 0 29 0;
#X connect 7 0 30 0;
#X connect 8 0 24 0;
#X connect 15 0 9 0;
#X connect 16 0 10 0;
#X connect 17 0 11 0;
#X connect 18 0 12 0;
#X connect 19 0 13 0;
#X connect 20 0 14 0;
#X connect 21 0 25 0;
#X connect 22 0 21 0;
#X connect 23 0 31 0;
#X connect 32 0 33 0;
#X connect 35 0 34 0;
#X connect 36 0 44 0;
#X connect 37 0 45 0;
#X connect 38 0 46 0;
#X connect 39 0 47 0;
#X connect 40 0 48 0;
#X connect 41 0 49 0;
#X connect 42 0 50 0;
#X connect 43 0 51 0;
#X connect 52 0 56 0;
#X connect 53 0 57 0;
#X connect 54 0 58 0;
#X connect 55 0 59 0;
#X connect 61 0 60 0;
#X restore 630 48 pd set.parameters;
#N canvas 637 94 710 640 get.parameters 0;
#X obj 18 21 param.get 1;
#X obj 18 65 s \$0-output-gain;
#X obj 18 305 s \$0-vca-eg-a;
#X obj 18 375 s \$0-vca-eg-d;
#X obj 18 445 s \$0-vca-eg-s;
#X obj 18 515 s \$0-vca-eg-r;
#X msg 18 43 set \$1;
#X msg 18 283 set \$1;
#X msg 18 353 set \$1;
#X msg 18 423 set \$1;
#X msg 18 493 set \$1;
#X msg 18 563 set \$1;
#X obj 18 585 s \$0-vca-eg-shape;
#X msg 18 113 set \$1;
#X obj 18 135 s \$0-lpf-freq;
#X msg 178 43 set \$1;
#X msg 178 113 set \$1;
#X msg 178 183 set \$1;
#X msg 178 253 set \$1;
#X msg 178 323 set \$1;
#X msg 178 393 set \$1;
#X obj 178 21 param.get 9;
#X obj 178 65 s \$0-pitch-eg-amt;
#X obj 178 135 s \$0-pitch-eg-a;
#X obj 178 205 s \$0-pitch-eg-d;
#X obj 178 275 s \$0-pitch-eg-s;
#X obj 178 345 s \$0-pitch-eg-r;
#X obj 178 91 param.get 10;
#X obj 178 161 param.get 11;
#X obj 178 231 param.get 12;
#X obj 178 301 param.get 13;
#X obj 178 371 param.get 14;
#X obj 178 415 s \$0-pitch-eg-shape;
#X msg 18 205 set \$1;
#X obj 18 227 s \$0-pitch-octave;
#X obj 18 183 + 3;
#X msg 178 467 set \$1;
#X obj 178 489 s \$0-pitch-eg-polarity;
#X obj 18 91 param.get 2;
#X obj 18 161 param.get 3;
#X obj 18 261 param.get 4;
#X obj 18 331 param.get 5;
#X obj 18 401 param.get 6;
#X obj 18 471 param.get 7;
#X obj 18 541 param.get 8;
#X obj 178 445 param.get 15;
#X msg 368 43 set \$1;
#X obj 368 21 param.get 16;
#X obj 368 65 s \$0-osc2-amt;
#X msg 368 113 set \$1;
#X obj 368 91 param.get 17;
#X obj 368 135 s \$0-osc2-ratio;
#X msg 368 183 set \$1;
#X msg 368 253 set \$1;
#X obj 368 205 s \$0-osc3-amt;
#X obj 368 275 s \$0-osc3-ratio;
#X obj 368 161 param.get 18;
#X obj 368 231 param.get 19;
#X msg 368 323 set \$1;
#X msg 368 393 set \$1;
#X obj 368 301 param.get 20;
#X obj 368 371 param.get 21;
#X msg 368 463 set \$1;
#X msg 368 533 set \$1;
#X msg 518 43 set \$1;
#X msg 518 113 set \$1;
#X msg 518 183 set \$1;
#X msg 518 253 set \$1;
#X obj 368 441 param.get 22;
#X obj 368 511 param.get 23;
#X obj 518 21 param.get 24;
#X obj 518 91 param.get 25;
#X obj 518 161 param.get 26;
#X obj 518 231 param.get 27;
#X msg 518 323 set \$1;
#X msg 518 393 set \$1;
#X obj 518 301 param.get 28;
#X obj 518 371 param.get 29;
#X obj 368 345 s \$0-osc4-amt;
#X obj 368 415 s \$0-osc4-ratio;
#X obj 368 485 s \$0-osc5-amt;
#X obj 368 555 s \$0-osc5-ratio;
#X obj 518 65 s \$0-osc6-amt;
#X obj 518 135 s \$0-osc6-ratio;
#X obj 518 205 s \$0-osc7-amt;
#X obj 518 275 s \$0-osc7-ratio;
#X obj 518 345 s \$0-osc8-amt;
#X obj 518 415 s \$0-osc8-ratio;
#X msg 518 463 set \$1;
#X obj 518 485 s \$0-pitch-bend-amt;
#X obj 518 441 param.get 30;
#X connect 0 0 6 0;
#X connect 6 0 1 0;
#X connect 7 0 2 0;
#X connect 8 0 3 0;
#X connect 9 0 4 0;
#X connect 10 0 5 0;
#X connect 11 0 12 0;
#X connect 13 0 14 0;
#X connect 15 0 22 0;
#X connect 16 0 23 0;
#X connect 17 0 24 0;
#X connect 18 0 25 0;
#X connect 19 0 26 0;
#X connect 20 0 32 0;
#X connect 21 0 15 0;
#X connect 27 0 16 0;
#X connect 28 0 17 0;
#X connect 29 0 18 0;
#X connect 30 0 19 0;
#X connect 31 0 20 0;
#X connect 33 0 34 0;
#X connect 35 0 33 0;
#X connect 36 0 37 0;
#X connect 38 0 13 0;
#X connect 39 0 35 0;
#X connect 40 0 7 0;
#X connect 41 0 8 0;
#X connect 42 0 9 0;
#X connect 43 0 10 0;
#X connect 44 0 11 0;
#X connect 45 0 36 0;
#X connect 46 0 48 0;
#X connect 47 0 46 0;
#X connect 49 0 51 0;
#X connect 50 0 49 0;
#X connect 52 0 54 0;
#X connect 53 0 55 0;
#X connect 56 0 52 0;
#X connect 57 0 53 0;
#X connect 58 0 78 0;
#X connect 59 0 79 0;
#X connect 60 0 58 0;
#X connect 61 0 59 0;
#X connect 62 0 80 0;
#X connect 63 0 81 0;
#X connect 64 0 82 0;
#X connect 65 0 83 0;
#X connect 66 0 84 0;
#X connect 67 0 85 0;
#X connect 68 0 62 0;
#X connect 69 0 63 0;
#X connect 70 0 64 0;
#X connect 71 0 65 0;
#X connect 72 0 66 0;
#X connect 73 0 67 0;
#X connect 74 0 86 0;
#X connect 75 0 87 0;
#X connect 76 0 74 0;
#X connect 77 0 75 0;
#X connect 88 0 89 0;
#X connect 90 0 88 0;
#X restore 630 67 pd get.parameters;
#X obj 630 29 tuning;
#X obj 109 92 hsl 100 15 0 10000 0 0 \$0-vca-eg-a-s \$0-vca-eg-a empty
-2 -8 0 10 -262144 -1 -1 0 1;
#X obj 217 92 nbx 5 15 0 10000 0 0 empty \$0-vca-eg-a empty 0 -8 0
10 -262144 -1 -1 0 256;
#N canvas 0 50 450 300 (subpatch) 0;
#X obj 14 18 inlet;
#X msg 14 40 set \$1;
#X obj 14 62 outlet;
#X connect 0 0 1 0;
#X connect 1 0 2 0;
#X restore 21 91 pd;
#X obj 109 112 hsl 100 15 0 10000 0 0 \$0-vca-eg-d-s \$0-vca-eg-d empty
-2 -8 0 10 -262144 -1 -1 0 1;
#X obj 217 112 nbx 5 15 0 10000 0 0 empty \$0-vca-eg-d empty 0 -8 0
10 -262144 -1 -1 0 256;
#N canvas 0 50 450 300 (subpatch) 0;
#X obj 14 18 inlet;
#X msg 14 40 set \$1;
#X obj 14 62 outlet;
#X connect 0 0 1 0;
#X connect 1 0 2 0;
#X restore 21 111 pd;
#X obj 109 152 hsl 100 15 0 10000 0 0 \$0-vca-eg-r-s \$0-vca-eg-r empty
-2 -8 0 10 -262144 -1 -1 0 1;
#X obj 217 152 nbx 5 15 0 10000 0 0 empty \$0-vca-eg-r empty 0 -8 0
10 -262144 -1 -1 0 256;
#N canvas 0 50 450 300 (subpatch) 0;
#X obj 14 18 inlet;
#X msg 14 40 set \$1;
#X obj 14 62 outlet;
#X connect 0 0 1 0;
#X connect 1 0 2 0;
#X restore 21 151 pd;
#X obj 109 132 hsl 100 15 0 100 0 0 \$0-vca-eg-s-s \$0-vca-eg-s empty
-2 -8 0 10 -262144 -1 -1 0 1;
#X obj 217 132 nbx 5 15 0 100 0 0 empty \$0-vca-eg-s empty 0 -8 0 10
-262144 -1 -1 0 256;
#N canvas 0 50 450 300 (subpatch) 0;
#X obj 14 18 inlet;
#X msg 14 40 set \$1;
#X obj 14 62 outlet;
#X connect 0 0 1 0;
#X connect 1 0 2 0;
#X restore 21 131 pd;
#X obj 349 298 hsl 100 15 -100 0 0 0 \$0-output-gain-s \$0-output-gain
empty -2 -8 0 10 -262144 -1 -1 0 1;
#X obj 457 298 nbx 5 15 -100 0 0 0 empty \$0-output-gain empty 0 -8
0 10 -262144 -1 -1 0 256;
#N canvas 0 50 450 300 (subpatch) 0;
#X obj 14 18 inlet;
#X msg 14 40 set \$1;
#X obj 14 62 outlet;
#X connect 0 0 1 0;
#X connect 1 0 2 0;
#X restore 290 297 pd;
#X obj 654 232 param.get 1;
#X obj 654 258 expr pow(10 \, ($f1/20) );
#N canvas 11 59 1202 679 synth 1;
#X obj 165 223 inlet;
#X obj 449 28 inlet;
#X obj 633 645 outlet~;
#X text 156 209 midinote;
#X text 440 14 velocity;
#X obj 633 622 *~;
#X obj 165 252 text get tuning;
#X obj 983 88 expr ($f1*$f1)/16129;
#X text 1300 467 lin/exp;
#X text 319 77 pitch attack;
#X text 366 97 pitch decay;
#X text 413 117 pitch sustain%;
#X text 460 137 pitc release;
#X text 1112 387 amp attack;
#X text 1159 407 amp decay;
#X text 1206 427 amp sustain%;
#X text 1253 447 amp release;
#X text 507 157 lin/exp;
#X obj 19 279 *~ 1;
#X obj 18 244 pow~, f 6;
#X obj 229 76 param.get 10;
#X obj 276 96 param.get 11;
#X obj 323 116 param.get 12;
#X obj 370 136 param.get 13;
#X obj 417 156 param.get 14;
#X obj 18 43 param.get 9;
#X text 16 27 pitch EG amt 0-1 oct;
#X obj 18 67 + 1;
#X obj 983 488 adsr~, f 34;
#X obj 182 75 != 0;
#X text 346 313 octave;
#X obj 256 335 expr pow(2 \, $f1);
#X obj 181 364 *~ 1;
#X msg 76 182 1;
#X msg 108 182 -1;
#X obj 76 160 sel 0;
#X text 104 123 polarity;
#X obj 83 221 *~ 1;
#X obj 182 178 adsr~, f 34;
#X obj 15 510 osc~;
#X obj 150 397 param.get 17;
#X obj 125 444 osc~;
#X obj 125 466 /~ 1, f 6;
#X obj 125 422 *~ 1;
#X obj 125 510 *~;
#X obj 143 488 param.get 16;
#X obj 245 444 osc~;
#X obj 245 466 /~ 1, f 6;
#X obj 245 422 *~ 1;
#X obj 245 510 *~;
#X obj 365 444 osc~;
#X obj 365 466 /~ 1, f 6;
#X obj 365 422 *~ 1;
#X obj 365 510 *~;
#X obj 485 444 osc~;
#X obj 485 466 /~ 1, f 6;
#X obj 485 422 *~ 1;
#X obj 485 510 *~;
#X obj 605 444 osc~;
#X obj 605 466 /~ 1, f 6;
#X obj 605 422 *~ 1;
#X obj 605 510 *~;
#X obj 725 444 osc~;
#X obj 725 466 /~ 1, f 6;
#X obj 725 422 *~ 1;
#X obj 725 510 *~;
#X obj 845 444 osc~;
#X obj 845 466 /~ 1, f 6;
#X obj 845 422 *~ 1;
#X obj 845 510 *~;
#X obj 270 397 param.get 19;
#X obj 390 397 param.get 21;
#X obj 510 397 param.get 23;
#X obj 630 397 param.get 25;
#X obj 750 397 param.get 27;
#X obj 870 397 param.get 29;
#X obj 263 488 param.get 18;
#X obj 383 488 param.get 20;
#X obj 503 488 param.get 22;
#X obj 623 488 param.get 24;
#X obj 743 488 param.get 26;
#X obj 863 488 param.get 28;
#X obj 256 313 param.get 3;
#X obj 1030 386 param.get 4;
#X obj 1077 406 param.get 5;
#X obj 1124 426 param.get 6;
#X obj 1171 446 param.get 7;
#X obj 1218 466 param.get 8;
#X obj 76 138 param.get 15;
#X obj 136 285 r pitchbend;
#X obj 136 307 sig~;
#X obj 136 329 lop~ 10;
#X obj 60 338 *~, f 5;
#X connect 0 0 6 0;
#X connect 1 0 29 0;
#X connect 1 0 7 0;
#X connect 5 0 2 0;
#X connect 6 0 18 1;
#X connect 7 0 28 0;
#X connect 18 0 92 0;
#X connect 19 0 18 0;
#X connect 20 0 38 1;
#X connect 21 0 38 2;
#X connect 22 0 38 3;
#X connect 23 0 38 4;
#X connect 24 0 38 5;
#X connect 25 0 27 0;
#X connect 27 0 19 0;
#X connect 28 0 5 1;
#X connect 29 0 38 0;
#X connect 31 0 32 1;
#X connect 32 0 39 0;
#X connect 32 0 43 0;
#X connect 32 0 48 0;
#X connect 32 0 52 0;
#X connect 32 0 56 0;
#X connect 32 0 60 0;
#X connect 32 0 64 0;
#X connect 32 0 68 0;
#X connect 33 0 37 1;
#X connect 34 0 37 1;
#X connect 35 0 33 0;
#X connect 35 1 34 0;
#X connect 37 0 19 1;
#X connect 38 0 37 0;
#X connect 39 0 5 0;
#X connect 40 0 42 1;
#X connect 40 0 43 1;
#X connect 41 0 42 0;
#X connect 42 0 44 0;
#X connect 43 0 41 0;
#X connect 44 0 5 0;
#X connect 45 0 44 1;
#X connect 46 0 47 0;
#X connect 47 0 49 0;
#X connect 48 0 46 0;
#X connect 49 0 5 0;
#X connect 50 0 51 0;
#X connect 51 0 53 0;
#X connect 52 0 50 0;
#X connect 53 0 5 0;
#X connect 54 0 55 0;
#X connect 55 0 57 0;
#X connect 56 0 54 0;
#X connect 57 0 5 0;
#X connect 58 0 59 0;
#X connect 59 0 61 0;
#X connect 60 0 58 0;
#X connect 61 0 5 0;
#X connect 62 0 63 0;
#X connect 63 0 65 0;
#X connect 64 0 62 0;
#X connect 65 0 5 0;
#X connect 66 0 67 0;
#X connect 67 0 69 0;
#X connect 68 0 66 0;
#X connect 69 0 5 0;
#X connect 70 0 47 1;
#X connect 70 0 48 1;
#X connect 71 0 51 1;
#X connect 71 0 52 1;
#X connect 72 0 55 1;
#X connect 72 0 56 1;
#X connect 73 0 59 1;
#X connect 73 0 60 1;
#X connect 74 0 63 1;
#X connect 74 0 64 1;
#X connect 75 0 67 1;
#X connect 75 0 68 1;
#X connect 76 0 49 1;
#X connect 77 0 53 1;
#X connect 78 0 57 1;
#X connect 79 0 61 1;
#X connect 80 0 65 1;
#X connect 81 0 69 1;
#X connect 82 0 31 0;
#X connect 83 0 28 1;
#X connect 84 0 28 2;
#X connect 85 0 28 3;
#X connect 86 0 28 4;
#X connect 87 0 28 5;
#X connect 88 0 35 0;
#X connect 89 0 90 0;
#X connect 90 0 91 0;
#X connect 91 0 92 1;
#X connect 92 0 32 0;
#X restore 630 178 pd synth;
#N canvas 474 378 450 300 filter 0;
#X obj 55 50 inlet~;
#X obj 124 156 outlet~;
#X obj 56 120 vcf~ 0.707;
#X obj 89 85 param.get 2;
#X connect 0 0 2 0;
#X connect 2 0 1 0;
#X connect 2 1 1 0;
#X connect 3 0 2 1;
#X restore 630 206 pd filter;
#X obj 256 172 tgl 15 0 \$0-vca-eg-shape-s \$0-vca-eg-shape empty 17
7 0 10 -262144 -1 -1 0 1;
#X text 180 170 Exponential;
#X obj 109 245 hsl 100 15 0 10000 0 0 \$0-pitch-eg-a-s \$0-pitch-eg-a
empty -2 -8 0 10 -262144 -1 -1 0 1;
#X obj 217 245 nbx 5 15 0 10000 0 0 empty \$0-pitch-eg-a empty 0 -8
0 10 -262144 -1 -1 0 256;
#N canvas 0 50 450 300 (subpatch) 0;
#X obj 14 18 inlet;
#X msg 14 40 set \$1;
#X obj 14 62 outlet;
#X connect 0 0 1 0;
#X connect 1 0 2 0;
#X restore 21 244 pd;
#X obj 109 265 hsl 100 15 0 10000 0 0 \$0-pitch-eg-d-s \$0-pitch-eg-d
empty -2 -8 0 10 -262144 -1 -1 0 1;
#X obj 217 265 nbx 5 15 0 10000 0 0 empty \$0-pitch-eg-d empty 0 -8
0 10 -262144 -1 -1 0 256;
#N canvas 0 50 450 300 (subpatch) 0;
#X obj 14 18 inlet;
#X msg 14 40 set \$1;
#X obj 14 62 outlet;
#X connect 0 0 1 0;
#X connect 1 0 2 0;
#X restore 21 264 pd;
#X obj 109 305 hsl 100 15 0 10000 0 0 \$0-pitch-eg-r-s \$0-pitch-eg-r
empty -2 -8 0 10 -262144 -1 -1 0 1;
#X obj 217 305 nbx 5 15 0 10000 0 0 empty \$0-pitch-eg-r empty 0 -8
0 10 -262144 -1 -1 0 256;
#N canvas 0 50 450 300 (subpatch) 0;
#X obj 14 18 inlet;
#X msg 14 40 set \$1;
#X obj 14 62 outlet;
#X connect 0 0 1 0;
#X connect 1 0 2 0;
#X restore 21 304 pd;
#X obj 109 285 hsl 100 15 0 100 0 0 \$0-pitch-eg-s-s \$0-pitch-eg-s
empty -2 -8 0 10 -262144 -1 -1 0 1;
#X obj 217 285 nbx 5 15 0 100 0 0 empty \$0-pitch-eg-s empty 0 -8 0
10 -262144 -1 -1 0 256;
#N canvas 0 50 450 300 (subpatch) 0;
#X obj 14 18 inlet;
#X msg 14 40 set \$1;
#X obj 14 62 outlet;
#X connect 0 0 1 0;
#X connect 1 0 2 0;
#X restore 21 284 pd;
#X obj 256 325 tgl 15 0 \$0-pitch-eg-shape-s \$0-pitch-eg-shape empty
17 7 0 10 -262144 -1 -1 0 1;
#X text 180 323 Exponential;
#X obj 109 225 hsl 100 15 0 2 0 0 \$0-pitch-eg-amt-s \$0-pitch-eg-amt
empty -2 -8 0 10 -262144 -1 -1 0 1;
#X obj 217 225 nbx 5 15 0 2 0 0 empty \$0-pitch-eg-amt empty 0 -8 0
10 -262144 -1 -1 0 256;
#N canvas 0 50 450 300 (subpatch) 0;
#X obj 14 18 inlet;
#X msg 14 40 set \$1;
#X obj 14 62 outlet;
#X connect 0 0 1 0;
#X connect 1 0 2 0;
#X restore 21 224 pd;
#X text 130 205 PITCH ENVELOPE;
#X text 276 92 ms;
#X text 276 112 ms;
#X text 276 152 ms;
#X text 276 132 %;
#X text 55 130 Sustain;
#X text 55 150 Release;
#X text 69 110 Decay;
#X text 62 90 Attack;
#X text 275 225 oct;
#X text 275 245 ms;
#X text 275 265 ms;
#X text 275 305 ms;
#X text 275 285 %;
#X text 62 223 Amount;
#X text 62 243 Attack;
#X text 69 262 Decay;
#X text 55 283 Sustain;
#X text 55 303 Release;
#X text 514 298 dB;
#X obj 346 318 nbx 5 15 50 22000 0 0 \$0-lpf-freq-s \$0-lpf-freq empty
0 -8 0 10 -262144 -1 -1 50 256;
#X text 323 316 LPF;
#X obj 475 76 hradio 15 1 0 7 \$0-pitch-octave-s \$0-pitch-octave empty
0 -8 0 10 -262144 -1 -1 3;
#X obj 106 325 tgl 15 0 \$0-pitch-eg-polarity-s \$0-pitch-eg-polarity
empty 17 7 0 10 -262144 -1 -1 0 1;
#X text 49 323 Negative;
#X text 403 318 Hz;
#X text 405 276 OUTPUT;
#X text 316 296 Gain;
#X text 113 72 AMPLITUDE ENVELOPE;
#X obj 325 99 vsl 15 128 0 1 0 0 \$0-osc2-amt-s \$0-osc2-amt empty
0 -9 0 10 -262144 -1 -1 0 1;
#X obj 320 234 nbx 2 15 1 16 0 0 \$0-osc2-ratio-s \$0-osc2-ratio empty
0 -8 0 10 -262144 -1 -1 1 256;
#X obj 365 99 vsl 15 128 0 1 0 0 \$0-osc3-amt-s \$0-osc3-amt empty
0 -9 0 10 -262144 -1 -1 0 1;
#X obj 360 234 nbx 2 15 1 16 0 0 \$0-osc3-ratio-s \$0-osc3-ratio empty
0 -8 0 10 -262144 -1 -1 1 256;
#X obj 405 99 vsl 15 128 0 1 0 0 \$0-osc4-amt-s \$0-osc4-amt empty
0 -9 0 10 -262144 -1 -1 0 1;
#X obj 400 234 nbx 2 15 1 16 0 0 \$0-osc4-ratio-s \$0-osc4-ratio empty
0 -8 0 10 -262144 -1 -1 1 256;
#X obj 445 99 vsl 15 128 0 1 0 0 \$0-osc5-amt-s \$0-osc5-amt empty
0 -9 0 10 -262144 -1 -1 0 1;
#X obj 440 234 nbx 2 15 1 16 0 0 \$0-osc5-ratio-s \$0-osc5-ratio empty
0 -8 0 10 -262144 -1 -1 1 256;
#X obj 485 99 vsl 15 128 0 1 0 0 \$0-osc6-amt-s \$0-osc6-amt empty
0 -9 0 10 -262144 -1 -1 0 1;
#X obj 480 234 nbx 2 15 1 16 0 0 \$0-osc6-ratio-s \$0-osc6-ratio empty
0 -8 0 10 -262144 -1 -1 1 256;
#X obj 525 99 vsl 15 128 0 1 0 0 \$0-osc7-amt-s \$0-osc7-amt empty
0 -9 0 10 -262144 -1 -1 0 1;
#X obj 520 234 nbx 2 15 1 16 0 0 \$0-osc7-ratio-s \$0-osc7-ratio empty
0 -8 0 10 -262144 -1 -1 1 256;
#X obj 565 99 vsl 15 128 0 1 0 0 \$0-osc8-amt-s \$0-osc8-amt empty
0 -9 0 10 -262144 -1 -1 0 1;
#X obj 560 234 nbx 2 15 1 16 0 0 \$0-osc8-ratio-s \$0-osc8-ratio empty
0 -8 0 10 -262144 -1 -1 1 256;
#X obj 630 150 poly 1 1, f 9;
#X text 350 75 OSCILLATORS;
#X text 452 75 8ve;
#X text 551 335 Sevish;
#X text 311 42 SUB;
#X obj 543 298 nbx 5 15 0 4800 0 0 \$0-pitch-bend-amt-s \$0-pitch-bend-amt
empty 0 -8 0 10 -262144 -1 -1 0 256;
#X text 540 276 PB (cents);
#X text 711 294 pitch bend amt;
#X obj 712 333 pitchbend;
#X obj 712 311 param.get 30;
#X connect 0 0 89 0;
#X connect 0 1 89 1;
#X connect 1 0 2 0;
#X connect 1 0 2 1;
#X connect 8 0 10 0;
#X connect 9 0 8 0;
#X connect 10 0 9 0;
#X connect 11 0 13 0;
#X connect 12 0 11 0;
#X connect 13 0 12 0;
#X connect 14 0 16 0;
#X connect 15 0 14 0;
#X connect 16 0 15 0;
#X connect 17 0 19 0;
#X connect 18 0 17 0;
#X connect 19 0 18 0;
#X connect 20 0 22 0;
#X connect 21 0 20 0;
#X connect 22 0 21 0;
#X connect 23 0 24 0;
#X connect 24 0 1 1;
#X connect 25 0 26 0;
#X connect 26 0 1 0;
#X connect 29 0 31 0;
#X connect 30 0 29 0;
#X connect 31 0 30 0;
#X connect 32 0 34 0;
#X connect 33 0 32 0;
#X connect 34 0 33 0;
#X connect 35 0 37 0;
#X connect 36 0 35 0;
#X connect 37 0 36 0;
#X connect 38 0 40 0;
#X connect 39 0 38 0;
#X connect 40 0 39 0;
#X connect 43 0 45 0;
#X connect 44 0 43 0;
#X connect 45 0 44 0;
#X connect 89 1 25 0;
#X connect 89 2 25 1;
#X connect 98 0 97 0;
#X coords 0 -1 1 1 580 330 2 30 30;
