#N canvas 254 89 1108 645 10;
#X obj 346 608 outlet~;
#X obj 16 19 inlet;
#X text 22 60 midinote;
#X text 427 61 velocity;
#X obj 346 571 *~;
#X obj 16 42 unpack, f 63;
#X obj 739 395 param.get 2;
#X obj 786 415 param.get 3;
#X obj 833 435 param.get 4;
#X obj 880 455 param.get 5;
#X obj 16 97 text get tuning;
#X obj 692 97 expr ($f1*$f1)/16129;
#X obj 927 475 param.get 6;
#X text 1009 476 lin/exp;
#X text 362 189 pitch attack;
#X text 409 209 pitch decay;
#X text 456 229 pitch sustain%;
#X text 503 249 pitc release;
#X text 821 396 amp attack;
#X text 868 416 amp decay;
#X text 915 436 amp sustain%;
#X text 962 456 amp release;
#X text 550 269 lin/exp;
#X obj 16 439 *~ 1;
#X obj 61 356 pow~, f 6;
#X obj 272 188 param.get 10;
#X obj 319 208 param.get 11;
#X obj 366 228 param.get 12;
#X obj 413 248 param.get 13;
#X obj 460 268 param.get 14;
#X obj 61 155 param.get 9;
#X text 59 139 pitch EG amt 0-1 oct;
#X obj 61 179 + 1;
#X obj 692 497 adsr~, f 34;
#X obj 225 97 != 0;
#X obj 61 417 param.get 15;
#X text 151 417 octave;
#X obj 61 439 expr pow(2 \, $f1);
#X obj 16 468 *~ 1;
#X obj 119 250 param.get 16;
#X msg 119 294 1;
#X msg 151 294 -1;
#X obj 119 272 sel 0;
#X text 147 235 polarity;
#X obj 126 333 *~ 1;
#X obj 225 290 adsr~, f 34;
#X obj 16 497 osc~;
#X connect 1 0 5 0;
#X connect 4 0 0 0;
#X connect 5 0 10 0;
#X connect 5 1 11 0;
#X connect 5 1 34 0;
#X connect 6 0 33 1;
#X connect 7 0 33 2;
#X connect 8 0 33 3;
#X connect 9 0 33 4;
#X connect 10 0 23 1;
#X connect 11 0 33 0;
#X connect 12 0 33 5;
#X connect 23 0 38 0;
#X connect 24 0 23 0;
#X connect 25 0 45 1;
#X connect 26 0 45 2;
#X connect 27 0 45 3;
#X connect 28 0 45 4;
#X connect 29 0 45 5;
#X connect 30 0 32 0;
#X connect 32 0 24 0;
#X connect 33 0 4 1;
#X connect 34 0 45 0;
#X connect 35 0 37 0;
#X connect 37 0 38 1;
#X connect 38 0 46 0;
#X connect 39 0 42 0;
#X connect 40 0 44 1;
#X connect 41 0 44 1;
#X connect 42 0 40 0;
#X connect 42 1 41 0;
#X connect 44 0 24 1;
#X connect 45 0 44 0;
#X connect 46 0 4 0;
